<svg width="64" height="64" viewBox="0 0 64 64" fill="none" xmlns="http://www.w3.org/2000/svg">
<g id="Logo Gram Kabinet">
<g id="Kobra Logo">
<g id="Group">
<g id="Group_2">
<path id="Vector" d="M58.874 17.9567C58.7729 18.8511 58.4829 20.0826 56.7845 20.1194C55.0906 20.1518 55.552 21.4394 52.8671 23.0015C50.1844 24.5592 47.5808 21.7829 46.5306 21.5863C45.4804 21.3897 43.6788 21.7829 43.5272 25.7237C43.358 30.1376 40.4204 34.6227 37.0413 37.3406C30.5422 42.5755 18.8931 43.4462 11.8316 38.8271C8.98636 36.969 6.85077 34.0394 6.10375 30.7447C4.90852 25.4752 7.38467 19.4755 12.1502 16.7015C19.5852 12.3783 28.8746 16.965 32.3021 24.166C32.39 24.3518 32.8558 25.3067 33.1392 26.0326C32.568 26.6981 31.8891 27.303 31.2783 27.7913C30.8388 26.6721 29.67 24.7515 29.481 24.4511C28.6439 23.1484 27.6223 21.9925 26.46 20.9619C24.1289 18.8987 20.5937 17.6499 17.454 17.9048C13.8486 18.1965 10.9791 20.6789 10.0827 24.0925C9.25221 27.2619 10.2321 30.898 13.1081 32.7496C20.3059 37.3752 32.9481 31.57 35.9032 25.8533C38.8539 20.1366 43.7469 13.8777 48.9101 13.8777C54.0733 13.8777 58.8762 17.9589 58.8762 17.9589L58.874 17.9567Z" fill="#810026"/>
<path id="Vector_2" d="M56.5425 50.7228C56.3777 51.2802 56.1097 51.7922 55.7691 52.2481C55.5054 52.6003 55.1957 52.9157 54.8529 53.1944C54.0597 53.8534 53.0776 54.3114 52.0714 54.521C51.6495 54.6117 51.2343 54.67 50.8234 54.7111C50.4257 54.7435 50.0302 54.7586 49.6479 54.7478C48.1363 54.7089 46.7522 54.3157 45.4844 53.6719C45.1153 53.4861 44.7572 53.2787 44.41 53.0497C43.2873 52.3216 42.2635 51.3947 41.3319 50.349C41.0484 50.0336 40.7738 49.7052 40.5102 49.3682C39.7895 48.4586 39.1304 47.4864 38.5328 46.4904C38.3174 46.1382 38.1109 45.7818 37.911 45.4274C37.421 44.5524 36.9706 43.6688 36.5597 42.8089C36.3884 42.4503 36.2214 42.0938 36.0632 41.746C35.9621 41.5256 35.8677 41.3117 35.7732 41.0956C35.7029 40.9336 35.6282 40.7694 35.5645 40.6074C36.1665 40.3222 36.9596 39.8339 37.8582 39.0129C37.9285 39.1793 38.1175 39.6179 38.4185 40.199C38.5745 40.5037 38.7591 40.8537 38.9788 41.2231C39.2973 41.7676 39.6818 42.3595 40.1279 42.9472C40.3608 43.2518 40.6112 43.5629 40.8771 43.8568C41.3714 44.4077 41.9185 44.9197 42.5205 45.3518C42.8413 45.5808 43.1796 45.7861 43.5312 45.9589C43.5883 45.9892 43.6432 46.0151 43.7004 46.041C44.3397 46.3305 45.0274 46.512 45.7151 46.579C46.1216 46.6179 46.5259 46.6222 46.9147 46.5833C47.7189 46.5098 48.4659 46.27 49.0547 45.8747C49.5579 45.5355 49.9446 45.0796 50.1423 44.5114C50.3752 43.846 50.3554 43.0336 49.9775 42.0679C49.9402 41.975 49.9006 41.8821 49.8589 41.7848C49.8918 41.7956 49.927 41.8021 49.9599 41.8108C50.3247 41.9037 50.6806 42.0095 51.0277 42.1327C51.5353 42.312 52.0252 42.5216 52.491 42.7765C53.2886 43.2086 54.0158 43.7595 54.6574 44.4747C56.1031 46.0864 57.1818 48.558 56.5425 50.7185V50.7228Z" fill="#ED0038"/>
</g>
</g>
</g>
</g>
</svg>
