<?xml version="1.0" encoding="UTF-8"?><svg id="Layer_1" xmlns="http://www.w3.org/2000/svg" xmlns:xlink="http://www.w3.org/1999/xlink" viewBox="0 0 1080 1080"><defs><style>.cls-1{fill:url(#linear-gradient);}.cls-1,.cls-2{stroke-width:0px;}.cls-2{fill:#fff;}</style><linearGradient id="linear-gradient" x1="0" y1="538.57" x2="1080" y2="538.57" gradientUnits="userSpaceOnUse"><stop offset="0" stop-color="#f69351"/><stop offset=".01" stop-color="#f5914f"/><stop offset=".19" stop-color="#f27c3c"/><stop offset=".39" stop-color="#f06e2e"/><stop offset=".62" stop-color="#ef6526"/><stop offset="1" stop-color="#ef6324"/></linearGradient></defs><rect class="cls-1" y="-1.43" width="1080" height="1080"/><path class="cls-2" d="m622.25,717.51h164.51v29.59c0,43.96-35.69,79.65-79.65,79.65h0c-46.83,0-84.85-38.02-84.85-84.85v-24.38h0Z"/><path class="cls-2" d="m661.55,266.71l33.95,33.85-.03-31c0-8.99,7.27-16.29,16.26-16.31h0s.04,47.49.04,47.49l22.57-22.64c6.41-6.43,16.78-6.6,23.39-.38h0s-42.44,42.58-42.44,42.58h0s-3.5.01-3.5.01l-16.27.04h-3.29s0,0,0,0l-30.98-30.89c-6.33-6.31-6.2-16.61.3-22.75h0Z"/><path class="cls-2" d="m293.24,477.36h493.52v109.24h-418.09c-41.63,0-75.43-33.8-75.43-75.43v-33.81h0Z"/><path class="cls-2" d="m457.75,597.43h329.01v109.24h-253.59c-41.63,0-75.43-33.8-75.43-75.43v-33.81h0Z"/><path class="cls-2" d="m650.73,405.39c-.06.13-.13.25-.19.38l-28.24,60.75h164.47l-28.8-131.57c-1.89-8.65-9.57-14.8-18.43-14.77l-56.85.23c-27.27.37-54.47,8.17-57.53,35.67-.7,6.29-3.06,17.06-2.84,22.93l26.94-.24c7.17-.06,11.78,7.59,8.36,13.9l-6.88,12.71Zm3.07-57.97l54.75-10.58c-.18,2.01-.62,4.03-1.28,6.03-5.02,15.31-21.46,23.63-36.77,18.61-7.49-2.46-13.27-7.63-16.7-14.06Z"/></svg>