<?xml version="1.0" encoding="UTF-8"?><svg id="Layer_1" xmlns="http://www.w3.org/2000/svg" xmlns:xlink="http://www.w3.org/1999/xlink" viewBox="0 0 946 393.11"><defs><style>.cls-1{fill:url(#linear-gradient);}.cls-1,.cls-2,.cls-3,.cls-4,.cls-5,.cls-6{stroke-width:0px;}.cls-2{fill:url(#linear-gradient-5);}.cls-3{fill:#ef6324;}.cls-4{fill:url(#linear-gradient-2);}.cls-5{fill:url(#linear-gradient-3);}.cls-6{fill:url(#linear-gradient-4);}</style><linearGradient id="linear-gradient" x1="233.73" y1="335.39" x2="332.12" y2="335.39" gradientUnits="userSpaceOnUse"><stop offset="0" stop-color="#f69351"/><stop offset=".02" stop-color="#f5904e"/><stop offset=".19" stop-color="#f37b3b"/><stop offset=".39" stop-color="#f26d2d"/><stop offset=".63" stop-color="#f16425"/><stop offset="1" stop-color="#f16223"/></linearGradient><linearGradient id="linear-gradient-2" x1="257.97" y1="33.98" x2="318.44" y2="33.98" gradientTransform="translate(-3.6 9.48) rotate(.33) skewX(-.08)" xlink:href="#linear-gradient"/><linearGradient id="linear-gradient-3" x1="36.95" y1="191.76" x2="332.12" y2="191.76" xlink:href="#linear-gradient"/><linearGradient id="linear-gradient-4" x1="135.34" y1="263.57" x2="332.12" y2="263.57" xlink:href="#linear-gradient"/><linearGradient id="linear-gradient-5" x1="233.76" y1="108.85" x2="332.12" y2="108.85" gradientUnits="userSpaceOnUse"><stop offset="0" stop-color="#f58a49"/><stop offset=".01" stop-color="#f48746"/><stop offset=".13" stop-color="#f37636"/><stop offset=".26" stop-color="#f16a2b"/><stop offset=".46" stop-color="#f16324"/><stop offset="1" stop-color="#f16223"/></linearGradient></defs><path class="cls-3" d="m371.62,165.53v-55.3h6.4v55.3h-6.4Zm4.66-18.96l-2.76-6.08,29.07-30.26h8.37l-34.68,36.34Zm27.57,18.96l-22.67-28.12,4.34-4.27,26.46,32.39h-8.14Z"/><path class="cls-3" d="m450.3,165.53l22.51-55.3h6.79l-22.2,55.3h-7.11Zm10.67-15.72v-6h30.73v6h-30.73Zm34.29,15.72l-22.2-55.3h6.71l22.51,55.3h-7.03Z"/><path class="cls-3" d="m547.55,165.53v-55.3h17.46c3.79,0,7.03.58,9.72,1.74,2.69,1.16,4.77,2.86,6.24,5.09,1.47,2.24,2.21,4.96,2.21,8.18,0,2.69-.61,5.04-1.82,7.07-1.21,2.03-2.92,3.67-5.13,4.94,2.74,1.32,4.86,3.08,6.36,5.29s2.25,4.85,2.25,7.9c0,3.21-.71,5.94-2.13,8.18s-3.44,3.95-6.04,5.13c-2.61,1.18-5.73,1.78-9.36,1.78h-19.75Zm6.64-31.05h12.48c3.05,0,5.45-.82,7.19-2.45,1.74-1.63,2.61-3.9,2.61-6.79s-1.01-5.31-3.04-6.91c-2.03-1.61-4.89-2.41-8.57-2.41h-10.67v18.57Zm0,25.04h12.8c3.48,0,6.2-.83,8.18-2.49,1.98-1.66,2.96-3.94,2.96-6.83,0-3.11-1.13-5.54-3.4-7.31-2.27-1.76-5.43-2.65-9.48-2.65h-11.06v19.28Z"/><path class="cls-3" d="m632.95,165.53v-55.3h6.71v55.3h-6.71Z"/><path class="cls-3" d="m691.48,165.53v-55.3h6.79l32.94,44.4v-44.4h6.71v55.3h-6.71l-33.02-44.63v44.63h-6.71Z"/><path class="cls-3" d="m789.76,165.53v-55.3h32.71v6.08h-25.99v17.85h23.7v6h-23.7v19.28h26.15v6.08h-32.86Z"/><path class="cls-3" d="m884.8,165.53v-49.22h-17.62v-6.08h41.87v6.08h-17.62v49.22h-6.64Z"/><path class="cls-3" d="m371.75,270.53v-77.11h17.71v77.11h-17.71Zm12.54-31.13v-16.28h46.64v16.28h-46.64Zm37.18,31.13v-77h17.71v77h-17.71Z"/><path class="cls-3" d="m456.34,270.53l29.92-77h17.6l-28.82,77h-18.7Zm14.08-14.63v-15.62h50.71v15.62h-50.71Zm45.98,14.63l-28.82-77h17.6l29.92,77h-18.7Z"/><path class="cls-3" d="m552.26,270.53v-77h30.25c5.57,0,10.52,1.08,14.85,3.25,4.33,2.16,7.72,5.17,10.17,9.02,2.46,3.85,3.69,8.27,3.69,13.25s-1.25,9.42-3.74,13.31c-2.49,3.89-5.92,6.91-10.29,9.08-4.36,2.16-9.37,3.25-15.01,3.25h-12.21v25.85h-17.71Zm17.71-42.13h11.99c2.05,0,3.89-.4,5.5-1.21,1.61-.81,2.88-1.92,3.79-3.36.92-1.43,1.38-3.02,1.38-4.79,0-2.71-1.01-4.95-3.02-6.71-2.02-1.76-4.67-2.64-7.98-2.64h-11.66v18.7Zm24.09,42.13l-17.38-30.58,13.31-9.79,24.31,40.37h-20.24Z"/><path class="cls-3" d="m633,270.53v-77h30.25c5.57,0,10.52,1.12,14.85,3.36,4.33,2.24,7.72,5.32,10.17,9.24,2.46,3.92,3.69,8.49,3.69,13.7s-1.19,9.59-3.58,13.58c-2.38,4-5.7,7.13-9.96,9.41-4.25,2.27-9.13,3.41-14.63,3.41h-13.09v24.31h-17.71Zm17.71-40.59h12.65c3.15,0,5.68-.94,7.59-2.8,1.91-1.87,2.86-4.31,2.86-7.32s-1.01-5.45-3.03-7.32c-2.02-1.87-4.67-2.8-7.97-2.8h-12.1v20.24Z"/><path class="cls-3" d="m709.34,270.53v-77h17.71v77h-17.71Z"/><path class="cls-3" d="m744.21,270.53l29.92-77h17.6l-28.82,77h-18.7Zm14.08-14.63v-15.62h50.71v15.62h-50.71Zm45.98,14.63l-28.82-77h17.6l29.92,77h-18.7Z"/><path class="cls-3" d="m840.13,270.53v-77.11h17.71v77.11h-17.71Zm12.54-31.13v-16.28h46.64v16.28h-46.64Zm37.18,31.13v-77h17.71v77h-17.71Z"/><path class="cls-1" d="m233.73,302.72h98.39v17.69c0,26.29-21.35,47.64-47.64,47.64h0c-28.01,0-50.75-22.74-50.75-50.75v-14.58h0Z"/><path class="cls-4" d="m257.24,33.11l20.3,20.24-.02-18.54c0-5.38,4.35-9.74,9.72-9.75h0s.02,28.4.02,28.4l13.5-13.54c3.83-3.85,10.03-3.95,13.99-.23h0s-25.38,25.46-25.38,25.46h0s-2.09,0-2.09,0l-9.73.02h-1.97s0,0,0,0l-18.53-18.47c-3.79-3.78-3.71-9.93.18-13.61h0Z"/><path class="cls-5" d="m36.95,159.09h295.17v65.33H82.06c-24.9,0-45.11-20.21-45.11-45.11v-20.22h0Z"/><path class="cls-6" d="m135.34,230.91h196.78v65.33h-151.67c-24.9,0-45.11-20.21-45.11-45.11v-20.22h0Z"/><path class="cls-2" d="m250.76,116.04c-.04.08-.08.15-.11.23l-16.89,36.34h98.37l-17.23-78.69c-1.13-5.17-5.72-8.85-11.02-8.83l-34,.14c-16.31.22-32.58,4.89-34.41,21.33-.42,3.76-1.83,10.21-1.7,13.72l16.11-.14c4.29-.04,7.05,4.54,5,8.31l-4.12,7.6Zm1.84-34.67l32.74-6.33c-.11,1.2-.37,2.41-.76,3.61-3,9.16-12.84,14.13-21.99,11.13-4.48-1.47-7.94-4.57-9.99-8.41Z"/></svg>