<?xml version="1.0" encoding="UTF-8"?><svg id="Layer_1" xmlns="http://www.w3.org/2000/svg" viewBox="0 0 946 393.11"><defs><style>.cls-1,.cls-2{fill:#fff;}.cls-3{font-family:Figtree-ExtraBold, Figtree;font-size:110px;font-weight:700;letter-spacing:.08em;}.cls-4{font-family:Figtree-Regular, Figtree;font-size:79px;letter-spacing:.47em;}.cls-2{stroke-width:0px;}</style></defs><text class="cls-1" transform="translate(345.27 165.53)"><tspan class="cls-4"><tspan x="0" y="0">KABINET</tspan></tspan><tspan class="cls-3"><tspan x="0" y="105">HARPIAH</tspan></tspan></text><path class="cls-2" d="m214.73,302.72h98.39v17.69c0,26.29-21.35,47.64-47.64,47.64h0c-28.01,0-50.75-22.74-50.75-50.75v-14.58h0Z"/><path class="cls-2" d="m238.24,33.11l20.3,20.24-.02-18.54c0-5.38,4.35-9.74,9.72-9.75h0s.02,28.4.02,28.4l13.5-13.54c3.83-3.85,10.03-3.95,13.99-.23h0s-25.38,25.46-25.38,25.46h0s-2.09,0-2.09,0l-9.73.02h-1.97s0,0,0,0l-18.53-18.47c-3.79-3.78-3.71-9.93.18-13.61h0Z"/><path class="cls-2" d="m17.95,159.09h295.17v65.33H63.06c-24.9,0-45.11-20.21-45.11-45.11v-20.22h0Z"/><path class="cls-2" d="m116.34,230.91h196.78v65.33h-151.67c-24.9,0-45.11-20.21-45.11-45.11v-20.22h0Z"/><path class="cls-2" d="m231.76,116.04c-.04.08-.08.15-.11.23l-16.89,36.34h98.37l-17.23-78.69c-1.13-5.17-5.72-8.85-11.02-8.83l-34,.14c-16.31.22-32.58,4.89-34.41,21.33-.42,3.76-1.83,10.21-1.7,13.72l16.11-.14c4.29-.04,7.05,4.54,5,8.31l-4.12,7.6Zm1.84-34.67l32.74-6.33c-.11,1.2-.37,2.41-.76,3.61-3,9.16-12.84,14.13-21.99,11.13-4.48-1.47-7.94-4.57-9.99-8.41Z"/></svg>