<svg width="200" height="60" viewBox="0 0 200 60" fill="none" xmlns="http://www.w3.org/2000/svg">
<g clip-path="url(#clip0_491_178013)">
<path d="M73.7354 45.6746V24.532H78.8876V35.2632L87.4959 24.532H93.9598L84.3913 36.3002L94.5991 49.1702H87.9111L78.8876 37.4647V45.6746H73.7354Z" fill="#ED0038"/>
<path d="M98.0573 27.8677C100.617 25.381 103.691 24.1538 107.305 24.1538C110.919 24.1538 113.962 25.381 116.458 27.805C118.987 30.2291 120.235 33.2171 120.235 36.743C120.235 40.2689 118.954 43.352 116.394 45.8365C113.866 48.3232 110.794 49.5504 107.178 49.5504C103.561 49.5504 100.52 48.3233 97.9936 45.8689C95.4648 43.4146 94.2168 40.4245 94.2168 36.8683C94.2168 33.3121 95.4977 30.3544 98.0573 27.8677ZM99.5294 36.8359C99.5294 38.9748 100.265 40.8004 101.77 42.343C103.275 43.8532 105.099 44.6094 107.243 44.6094C109.388 44.6094 111.211 43.8532 112.716 42.343C114.222 40.8004 114.958 38.977 114.958 36.8359C114.958 34.6949 114.222 32.8714 112.716 31.3612C111.211 29.851 109.388 29.0949 107.243 29.0949C105.099 29.0949 103.275 29.851 101.77 31.3612C100.265 32.8714 99.5294 34.697 99.5294 36.8359Z" fill="#ED0038"/>
<path d="M135.083 49.1702H124.521V24.5298H134.923C137.131 24.5298 138.987 25.0958 140.556 26.2301C142.125 27.3622 142.924 28.9674 142.924 31.0458C142.924 33.3424 141.74 35.1054 139.405 36.3002V36.3628C142.509 37.4949 144.012 39.2255 144.012 42.3733C144.012 47.377 139.468 49.1702 135.083 49.1702ZM134.22 29.2202H129.579V34.5394H133.868C136.524 34.5394 137.836 33.6276 137.836 31.8323C137.836 29.944 136.267 29.2202 134.22 29.2202ZM134.859 38.9446H129.579V44.4517H135.019C137.643 44.4517 138.957 43.54 138.957 41.7143C138.957 39.8887 137.581 38.9446 134.861 38.9446H134.859Z" fill="#ED0038"/>
<path d="M161.838 49.1702L156.652 40.3273H153.517V45.6724H148.332V24.5298H158.221C160.781 24.5298 162.895 25.2212 164.558 26.5758C166.254 27.9282 167.087 29.8489 167.087 32.3335C167.087 35.9199 165.357 38.3116 161.934 39.5387L167.599 49.1681H161.838V49.1702ZM153.517 35.6066H157.837C160.012 35.6066 161.838 34.5674 161.838 32.4286C161.838 30.2897 160.078 29.3455 157.806 29.3455H153.517V35.6066Z" fill="#ED0038"/>
<path d="M168.782 49.1702L178.351 24.5298H184.59L194.192 49.1702H188.848L186.961 44.1989H175.857L174 49.1702H168.784H168.782ZM177.648 39.4782H185.199L181.422 29.4708L177.645 39.4782H177.648Z" fill="#ED0038"/>
<path d="M78.1818 14.7577L75.3476 11.8951V14.7577H73.9414V7.25H75.3476V9.85556L78.0346 7.25H80.0252L76.2616 10.8645L80.1636 14.7577H78.1818Z" fill="#810026"/>
<path d="M75.0087 7.58276V10.6075H75.0527L78.1726 7.58276H79.1942L75.7821 10.8602L79.3546 14.4251H78.3242L75.0615 11.1303H75.0087V14.4251H74.2793V7.58276H75.0087Z" fill="#810026"/>
<path d="M97.8177 14.7577L97.0619 13.0099H93.7135L92.9489 14.7577H91.4658L94.7615 7.25H96.0336L99.3293 14.7577H97.8177ZM96.4884 11.6898L95.3833 9.16636L94.2781 11.6898H96.4862H96.4884Z" fill="#810026"/>
<path d="M92.7265 14.4251H91.9795L94.9829 7.58276H95.8091L98.8125 14.4251H98.0391L97.2833 12.6772H93.4889L92.7243 14.4251H92.7265ZM97.0021 12.0226L95.385 8.32597L93.7679 12.0226H97.0021Z" fill="#810026"/>
<path d="M112.097 14.7577V7.25H114.933C115.674 7.25 116.265 7.42067 116.744 7.77067C117.253 8.14444 117.51 8.65864 117.51 9.30463C117.51 9.55092 117.48 9.79074 117.326 10.1645C117.242 10.3914 117.073 10.616 116.845 10.8083C117.084 10.9531 117.282 11.141 117.431 11.3722C117.691 11.7698 117.822 12.1651 117.822 12.5475C117.822 13.2864 117.537 13.8525 116.972 14.2306C116.458 14.5806 115.801 14.7599 115.023 14.7599H112.099L112.097 14.7577ZM115.039 13.4377C115.425 13.4377 115.755 13.3534 116.045 13.1806C116.291 13.038 116.399 12.8284 116.399 12.4957C116.399 12.2796 116.335 12.1197 116.201 11.9923C115.915 11.7114 115.531 11.5947 114.907 11.5947H113.494V13.4377H115.041H115.039ZM114.817 10.292C115.401 10.292 116.095 10.1343 116.095 9.38241C116.095 8.63055 115.239 8.57006 114.869 8.57006H113.492V10.292H114.817Z" fill="#810026"/>
<path d="M112.435 7.58272H114.933C115.59 7.58272 116.124 7.7318 116.541 8.03643C116.959 8.34322 117.172 8.76235 117.172 9.30464C117.172 9.5142 117.145 9.71513 117.011 10.0392C116.895 10.3546 116.568 10.6679 116.113 10.8688C116.574 10.9833 116.921 11.2102 117.143 11.5494C117.365 11.8908 117.482 12.2235 117.482 12.5454C117.482 13.1654 117.251 13.6386 116.778 13.9519C116.317 14.2673 115.73 14.4228 115.019 14.4228H112.433V7.58057L112.435 7.58272ZM113.155 10.6247H114.816C115.911 10.6247 116.434 10.1083 116.434 9.38457C116.434 8.6068 115.759 8.23951 114.869 8.23951H113.153V10.6247H113.155ZM113.155 13.7704H115.041C115.493 13.7704 115.884 13.6645 116.223 13.4636C116.57 13.2627 116.739 12.9386 116.739 12.4935C116.739 12.1867 116.642 11.9426 116.436 11.7503C116.036 11.3571 115.511 11.2599 114.907 11.2599H113.155V13.7682V13.7704Z" fill="#810026"/>
<path d="M132.639 7.25H131.235V14.7577H132.639V7.25Z" fill="#810026"/>
<path d="M132.304 14.4251H131.574V7.58276H132.304V14.4251Z" fill="#810026"/>
<path d="M151.576 14.7577L147.923 9.64599V14.7577H146.527V7.25H147.883L151.477 12.2515V7.25H152.873V14.7577H151.576Z" fill="#810026"/>
<path d="M152.534 14.4251H151.752L147.584 8.59604V14.4251H146.863V7.58276H147.707L151.813 13.2994V7.58276H152.534V14.4251Z" fill="#810026"/>
<path d="M166.759 14.7577V7.25H171.79V8.5787H168.165V10.2833H171.48V11.612H168.165V13.429H171.825V14.7577H166.759Z" fill="#810026"/>
<path d="M171.451 8.246H167.826V10.6139H171.141V11.2772H167.826V13.7596H171.488V14.4228H167.099V7.58057H171.453V8.24383L171.451 8.246Z" fill="#810026"/>
<path d="M186.831 14.7577V8.58735H184.502V7.25H190.564V8.58735H188.246V14.7577H186.831Z" fill="#810026"/>
<path d="M187.17 8.25464H184.841V7.58057H190.226V8.25464H187.906V14.425H187.168V8.25464H187.17Z" fill="#810026"/>
<path d="M58.874 15.9567C58.7729 16.8511 58.4829 18.0826 56.7845 18.1194C55.0906 18.1518 55.552 19.4394 52.8671 21.0015C50.1844 22.5592 47.5808 19.7829 46.5306 19.5863C45.4804 19.3897 43.6788 19.7829 43.5272 23.7237C43.358 28.1376 40.4204 32.6227 37.0413 35.3406C30.5422 40.5755 18.8931 41.4462 11.8316 36.8271C8.98636 34.969 6.85077 32.0394 6.10375 28.7447C4.90852 23.4752 7.38467 17.4755 12.1502 14.7015C19.5852 10.3783 28.8746 14.965 32.3021 22.166C32.39 22.3518 32.8558 23.3067 33.1392 24.0326C32.568 24.6981 31.8891 25.303 31.2783 25.7913C30.8388 24.6721 29.67 22.7515 29.481 22.4511C28.6439 21.1484 27.6223 19.9925 26.46 18.9619C24.1289 16.8987 20.5937 15.6499 17.454 15.9048C13.8486 16.1965 10.9791 18.6789 10.0827 22.0925C9.25221 25.2619 10.2321 28.8981 13.1081 30.7496C20.3059 35.3752 32.9481 29.57 35.9032 23.8533C38.8539 18.1366 43.7469 11.8777 48.9101 11.8777C54.0733 11.8777 58.8762 15.9589 58.8762 15.9589L58.874 15.9567Z" fill="#810026"/>
<path d="M56.5425 48.7228C56.3777 49.2802 56.1097 49.7922 55.7691 50.2481C55.5054 50.6003 55.1957 50.9157 54.8529 51.1944C54.0597 51.8534 53.0776 52.3114 52.0714 52.521C51.6495 52.6117 51.2343 52.67 50.8234 52.7111C50.4257 52.7435 50.0302 52.7586 49.6479 52.7478C48.1363 52.7089 46.7522 52.3157 45.4844 51.6719C45.1153 51.4861 44.7572 51.2787 44.41 51.0497C43.2873 50.3216 42.2635 49.3947 41.3319 48.349C41.0484 48.0336 40.7738 47.7052 40.5102 47.3682C39.7895 46.4586 39.1304 45.4864 38.5328 44.4904C38.3174 44.1382 38.1109 43.7818 37.911 43.4274C37.421 42.5524 36.9706 41.6688 36.5597 40.8089C36.3884 40.4503 36.2214 40.0938 36.0632 39.746C35.9621 39.5256 35.8677 39.3117 35.7732 39.0956C35.7029 38.9336 35.6282 38.7694 35.5645 38.6074C36.1665 38.3222 36.9596 37.8339 37.8582 37.0129C37.9286 37.1793 38.1175 37.6179 38.4185 38.199C38.5745 38.5037 38.7591 38.8537 38.9788 39.2231C39.2973 39.7676 39.6818 40.3595 40.1279 40.9472C40.3608 41.2518 40.6112 41.5629 40.8771 41.8568C41.3714 42.4077 41.9185 42.9197 42.5205 43.3518C42.8413 43.5808 43.1796 43.7861 43.5312 43.9589C43.5883 43.9892 43.6432 44.0151 43.7004 44.041C44.3397 44.3305 45.0274 44.512 45.7151 44.579C46.1216 44.6179 46.5259 44.6222 46.9147 44.5833C47.7189 44.5098 48.4659 44.27 49.0547 43.8747C49.5579 43.5355 49.9446 43.0796 50.1423 42.5114C50.3752 41.846 50.3554 41.0336 49.9775 40.0679C49.9402 39.975 49.9006 39.8821 49.8589 39.7848C49.8918 39.7956 49.927 39.8021 49.9599 39.8108C50.3247 39.9037 50.6806 40.0095 51.0277 40.1327C51.5353 40.312 52.0252 40.5216 52.491 40.7765C53.2886 41.2086 54.0158 41.7595 54.6574 42.4747C56.1031 44.0864 57.1818 46.558 56.5425 48.7185V48.7228Z" fill="#ED0038"/>
</g>
<defs>
<clipPath id="clip0_491_178013">
<rect width="200" height="60" fill="white"/>
</clipPath>
</defs>
</svg>
